# xmcd CD database file
#
# Track frame offsets:
#	150
#	3079
#	25104
#	49229
#	75740
#	96873
#	109531
#	142319
#	156007
#	168763
#	185844
#	221181
#	240143
#	275623
#
# Disc length: 3933 seconds
#
# Revision: 0
# Processed by: cddbd v1.5.1PL2 Copyright (c) Steve Scherf et al.
# Submitted via: CDex 1.51
#
DISCID=b60f5b0e
DTITLE=Modern Blues Band - The Revese Side Of The Blues
DYEAR=2006
DGENRE=Blues
TTITLE0=Intro
TTITLE1=Mustang Sally
TTITLE2=Thrill is Gone
TTITLE3=Got My Mojo Working
TTITLE4=Someday After a WiLe
TTITLE5=Boogi
TTITLE6=Old Love
TTITLE7=I'm Torn Down
TTITLE8=Don't Let Me Be Lonely Tonight
TTITLE9=Nobody Knows You When You're Down and Out
TTITLE10=Stormy Monday Blues
TTITLE11=No More Doggin
TTITLE12=Wonderful Tonight
TTITLE13=It Hurts Me Too
EXTD=YEAR: 2006
EXTT0=
EXTT1=
EXTT2=
EXTT3=
EXTT4=
EXTT5=
EXTT6=
EXTT7=
EXTT8=
EXTT9=
EXTT10=
EXTT11=
EXTT12=
EXTT13=
PLAYORDER=
